<?xml version="1.0" ?><svg id="Layer_1" style="enable-background:new 0 0 48 48;" version="1.1" viewBox="0 0 48 48" xml:space="preserve" xmlns="http://www.w3.org/2000/svg" xmlns:xlink="http://www.w3.org/1999/xlink"><style type="text/css">
	.st0{opacity:0.3;}
	.st1{fill:#29ABE2;}
</style><title/><g id="Ubuntu"><g class="st0"><ellipse class="st1" cx="15" cy="21" rx="3" ry="3"/><path class="st1" d="M34.6,30.4c-1.4,0.8-1.9,2.7-1.1,4.1c0.8,1.4,2.7,1.9,4.1,1.1c1.4-0.8,1.9-2.7,1.1-4.1    C37.9,30.1,36,29.6,34.6,30.4C34.6,30.4,34.6,30.4,34.6,30.4z"/><path class="st1" d="M34.6,11.6c1.4,0.8,3.3,0.3,4.1-1.1c0.8-1.4,0.3-3.3-1.1-4.1c-1.4-0.8-3.3-0.3-4.1,1.1    C32.6,8.9,33.1,10.8,34.6,11.6C34.6,11.6,34.6,11.6,34.6,11.6z"/><path class="st1" d="M24.4,26.2c-2.9-2.6-3.2-7-0.6-9.9c0.2-0.2,0.4-0.4,0.6-0.6c0.2-0.2,0.2-0.4,0.1-0.6L22,10.8    c-0.1-0.2-0.4-0.3-0.7-0.2c0,0,0,0-0.1,0c-2.1,1.6-3.7,3.8-4.5,6.3c-0.1,0.2,0,0.5,0.2,0.6c1.9,1.1,2.6,3.5,1.6,5.4    c-0.4,0.7-0.9,1.2-1.6,1.6c-0.2,0.1-0.3,0.4-0.2,0.6c0.8,2.5,2.4,4.7,4.5,6.3c0.1,0.1,0.2,0.1,0.3,0.1h0.1c0.1,0,0.3-0.1,0.3-0.2    l2.5-4.4C24.7,26.7,24.6,26.4,24.4,26.2z"/><path class="st1" d="M41.5,22h-5.1c-0.2,0-0.4,0.2-0.5,0.4c-0.8,3.8-4.5,6.2-8.3,5.5c-0.3-0.1-0.6-0.1-0.8-0.2    c-0.2-0.1-0.5,0-0.6,0.2l-2.5,4.4c-0.1,0.2-0.1,0.5,0.2,0.7c0,0,0,0,0.1,0c1.6,0.7,3.4,1,5.1,1c0.9,0,1.8-0.1,2.6-0.3    c0.2,0,0.3-0.2,0.4-0.4c0,0,0-0.1,0-0.1c-0.1-1.5,0.7-2.9,2-3.7c1.3-0.7,2.9-0.7,4.2,0.1c0.2,0.1,0.5,0.1,0.7-0.1    c1.7-2,2.8-4.4,3.1-7C42,22.2,41.8,22,41.5,22C41.6,21.9,41.5,21.9,41.5,22L41.5,22z"/><path class="st1" d="M26.2,14.1c0.1,0.2,0.4,0.3,0.6,0.2c3.7-1.2,7.6,0.7,8.9,4.4c0.1,0.3,0.2,0.6,0.2,0.8c0,0.2,0.3,0.4,0.5,0.4    h5.1c0.3,0,0.5-0.2,0.5-0.5c0,0,0,0,0-0.1c-0.3-2.6-1.4-5-3.1-7c-0.2-0.2-0.4-0.2-0.7-0.1c-1.3,0.8-2.9,0.8-4.2,0.1    c-0.9-0.5-1.6-1.4-1.9-2.4c-0.1-0.4-0.1-0.8-0.1-1.3c0,0,0-0.1,0-0.1c0-0.2-0.2-0.3-0.4-0.4C29.1,7.7,26.4,8,23.9,9    c-0.3,0.1-0.4,0.4-0.3,0.7c0,0,0,0,0,0.1L26.2,14.1z"/></g><path class="st1" d="M8.5,27.5C7.1,27.5,6,28.6,6,30s1.1,2.5,2.5,2.5S11,31.4,11,30S9.9,27.5,8.5,27.5z M8.5,31.5   C7.7,31.5,7,30.8,7,30s0.7-1.5,1.5-1.5S10,29.2,10,30S9.3,31.5,8.5,31.5z"/><path class="st1" d="M25.5,23c1.4,0,2.5-1.1,2.5-2.5S26.9,18,25.5,18S23,19.1,23,20.5S24.1,23,25.5,23z M25.5,19   c0.8,0,1.5,0.7,1.5,1.5S26.3,22,25.5,22S24,21.3,24,20.5S24.7,19,25.5,19z"/><path class="st1" d="M25.5,37c-1.4,0-2.5,1.1-2.5,2.5s1.1,2.5,2.5,2.5s2.5-1.1,2.5-2.5S26.9,37,25.5,37z M25.5,41   c-0.8,0-1.5-0.7-1.5-1.5s0.7-1.5,1.5-1.5s1.5,0.7,1.5,1.5S26.3,41,25.5,41z"/><path class="st1" d="M16.8,33.8c-2.1-1.8-2.3-5-0.6-7c0.2-0.2,0.4-0.4,0.6-0.6c0.2-0.2,0.2-0.4,0.1-0.6l-2-3.5   c-0.1-0.1-0.2-0.2-0.3-0.2c-0.1,0-0.3,0-0.4,0.1c-1.7,1.2-2.9,2.9-3.6,4.8c-0.1,0.2,0,0.4,0.1,0.5c1.5,1.2,1.7,3.4,0.5,4.9   c-0.2,0.2-0.3,0.4-0.5,0.5c-0.2,0.1-0.2,0.4-0.1,0.5c0.7,1.9,1.9,3.6,3.6,4.8c0.1,0.1,0.2,0.1,0.3,0.1h0.1c0.1,0,0.3-0.1,0.3-0.2   l2-3.5C17,34.2,17,34,16.8,33.8z M14.3,36.9c-1.2-1-2.1-2.3-2.7-3.7c1.8-1.7,1.9-4.5,0.2-6.3c-0.1-0.1-0.1-0.1-0.2-0.2   c0.6-1.4,1.5-2.7,2.7-3.7l1.5,2.6c-2.4,2.3-2.4,6.1-0.1,8.5c0,0,0,0.1,0.1,0.1L14.3,36.9z"/><path class="st1" d="M17.7,25.1c0.1,0.2,0.4,0.3,0.6,0.2c2.6-1,5.5,0.3,6.4,2.9c0.1,0.3,0.2,0.6,0.2,0.9c0,0.2,0.2,0.4,0.5,0.4h4   c0.3,0,0.5-0.2,0.5-0.5c0,0,0,0,0-0.1c-0.2-1.9-1-3.8-2.2-5.3c-0.2-0.2-0.4-0.2-0.6-0.1c-1.7,0.9-3.8,0.3-4.7-1.3   c-0.3-0.5-0.4-1.1-0.4-1.7c0-0.2-0.2-0.4-0.4-0.5c-1.9-0.3-3.9-0.1-5.6,0.7c-0.3,0.1-0.4,0.4-0.3,0.7c0,0,0,0,0,0.1L17.7,25.1z    M20,21c0.3,0,0.7,0,1,0.1c0.3,2.3,2.2,4,4.5,3.9c0.6,0,1.2-0.1,1.8-0.4c0.9,1.1,1.4,2.5,1.7,3.9h-3.1C25.2,25.8,22.8,24,20,24   c-0.5,0-1.1,0.1-1.6,0.2l-1.5-2.6C17.9,21.2,18.9,21,20,21z"/><path class="st1" d="M29.5,30.5h-4c-0.2,0-0.4,0.2-0.5,0.4c-0.5,2.7-3.1,4.5-5.8,4c-0.3-0.1-0.6-0.1-0.8-0.2   c-0.2-0.1-0.5,0-0.6,0.2l-2,3.5c-0.1,0.2-0.1,0.5,0.2,0.7c0,0,0,0,0.1,0c1.8,0.8,3.7,1.1,5.6,0.7c0.2,0,0.4-0.2,0.4-0.5   c0-1.9,1.6-3.4,3.5-3.4c0.6,0,1.1,0.2,1.7,0.4c0.2,0.1,0.5,0.1,0.6-0.1c1.2-1.5,2-3.3,2.2-5.2C30,30.8,29.8,30.5,29.5,30.5   C29.5,30.5,29.5,30.5,29.5,30.5z M27.3,35.4c-0.6-0.2-1.1-0.4-1.8-0.4c-2.3,0-4.2,1.7-4.5,3.9c-1.4,0.2-2.9,0-4.2-0.5l1.5-2.7   c0.5,0.2,1.1,0.2,1.6,0.2c2.8,0,5.2-1.8,5.9-4.5h3.1C28.7,32.9,28.1,34.2,27.3,35.4z"/></g></svg>